<?xml version="1.0" encoding="UTF-8" standalone="no"?>

<svg width="100%" height="100%" viewBox="0 0 2256 2256" version="1.1" xmlns="http://www.w3.org/2000/svg" xmlns:xlink="http://www.w3.org/1999/xlink" xml:space="preserve" xmlns:serif="http://www.serif.com/" style="fill-rule:evenodd;clip-rule:evenodd;stroke-linejoin:round;stroke-miterlimit:2;">
    <g transform="matrix(1,0,0,1,-21973,-14532)">
        <g id="Artboard8" transform="matrix(1,0,0,1,-0.483123,-0.650082)">
            <rect x="21973.5" y="14532.6" width="2255.33" height="2255.33" style="fill:none;"></rect>
            <g transform="matrix(12.5007,0,0,12.5007,24228.8,15096.5)">
                <path d="M0,135.312L-67.656,135.312C-105.021,135.312 -135.312,105.021 -135.312,67.656C-135.312,30.291 -105.021,0 -67.656,0C-30.29,0 0,30.291 0,67.656L0,135.312Z" style="fill:rgb(35,15,35);fill-rule:nonzero;"></path>
            </g>
            <g transform="matrix(12.5007,0,0,12.5007,21973.5,14532.7)">
                <path d="M0,135.312L67.656,135.312C105.021,135.312 135.312,105.022 135.312,67.656C135.312,30.291 105.021,0 67.656,0C30.29,0 0,30.291 0,67.656L0,135.312Z" style="fill:rgb(248,192,40);fill-rule:nonzero;"></path>
            </g>
        </g>
    </g>
</svg>