<?xml version="1.0" encoding="UTF-8"?>
<svg id="Coffee" xmlns="http://www.w3.org/2000/svg" viewBox="0 0 500 500">
  <defs>
    
  </defs>
  <g>
    <path class="cls-1" d="M283.19,111.25s-34.23,16.68-10.96,43.03c19.38,20.69,13.46,34.1,13.46,34.1"></path>
    <path class="cls-1" d="M232.29,98.57s-25.52,3.28-28.35,32.65c-2.54,26.34,31.63,30.6,33.51,48.99,1.47,14.34-4.94,26.76-4.94,26.76"></path>
    <path class="cls-1" d="M166.23,118.15s-19.8,13.88-15.79,28.2c2.9,10.35,23.98,29.45,25.36,42.62,1.03,9.85-3.43,22.9-3.43,22.9"></path>
  </g>
  <g>
    <path class="cls-1" d="M155.89,306.26s206.45,2.43,182.51-61.68c-16.45-44.05-181.54,5.39-193.21,33.41"></path>
    <path class="cls-1" d="M155.89,306.26s20.59,128.4,112.63,113.86c92.04-14.53,71.16-169.68,71.16-169.68"></path>
    <path class="cls-1" d="M346.54,281.33s37.68-9.84,37.83,24.37-38.41,23.24-38.41,23.24"></path>
  </g>
</svg>