<?xml version="1.0" encoding="UTF-8" standalone="no"?>

<svg width="100%" height="100%" viewBox="0 0 2256 2256" version="1.1" xmlns="http://www.w3.org/2000/svg" xmlns:xlink="http://www.w3.org/1999/xlink" xml:space="preserve" xmlns:serif="http://www.serif.com/" style="fill-rule:evenodd;clip-rule:evenodd;stroke-linejoin:round;stroke-miterlimit:2;">
    <g transform="matrix(1,0,0,1,-21973,-14532)">
        <g id="Artboard8" transform="matrix(1,0,0,1,-0.483123,-0.650082)">
            <rect x="21973.5" y="14532.6" width="2255.33" height="2255.33" style="fill:none;"></rect>
            <g transform="matrix(0,-12.5007,-12.5007,0,23101.1,14532.7)">
                <path d="M-90.208,-90.208C-140.028,-90.208 -180.416,-49.821 -180.416,0.001C-180.416,49.821 -140.028,90.208 -90.208,90.208C-40.387,90.208 0.001,49.821 0.001,0.001C0.001,-49.821 -40.387,-90.208 -90.208,-90.208" style="fill:rgb(246,97,49);fill-rule:nonzero;"></path>
            </g>
            <g transform="matrix(12.5007,0,0,12.5007,24228.8,16788)">
                <path d="M0,-90.208C0,-40.388 -40.387,0 -90.208,0L-90.208,-90.208L0,-90.208Z" style="fill:rgb(35,15,35);fill-rule:nonzero;"></path>
            </g>
        </g>
    </g>
</svg>