<?xml version="1.0" encoding="UTF-8"?>
<svg id="Layer_2" data-name="Layer 2" xmlns="http://www.w3.org/2000/svg" viewBox="0 0 360.844871 527.382107">
  <defs>
    
  </defs>
  <g id="Layer_1-2" data-name="Layer 1">
    <g>
      <path class="cls-1" d="M55.853985,275.202062c-29.898092,47.69127-25.309533,112.081579,3.400101,160.497589,6.633856,11.187354,14.661301,21.904799,25.511193,29.0773,10.849892,7.172501,24.944916,10.354016,37.139304,5.830541,8.550994-3.171968,15.440894-9.771014,20.844139-17.118518,17.084977-23.232697,20.490527-56.162115,7.352154-81.833846-13.138373-25.671732-42.703907-42.315221-71.348477-38.977076-29.759291,3.468047-54.723982,27.054905-65.394626,55.050978-10.670644,27.996073-8.727739,59.510296-.594839,88.346015,4.437521,15.733526,10.656174,30.963964,18.499063,45.307062"></path>
      <path class="cls-1" d="M71.210864,119.281458c-18.42976-9.675624-38.852088-22.043296-57.281848-31.71892C120.087308,38.095854,237.643059,10.361537,354.679432,6c-41.171663,74.237243-73.747707,153.237025-96.869556,234.91722-33.946946-24.253738-72.563963-48.470272-113.799826-42.126572-21.619962,3.32599-40.848801,15.164116-59.358247,26.821104,6.211526-25.826845,5.433232-53.299686-2.230489-78.733453"></path>
      <path class="cls-1" d="M71.210864,119.281458c-18.42976-9.675624-38.852088-22.043296-57.28184-31.718924C117.508739,39.297393,239.730687,4.774491,354.844871,6.217347c-20.729516,10.634452-46.353198,15.105424-68.317472,23.510943-24.255693,9.282423-48.046391,19.779326-71.256918,31.431321-46.420295,23.30361-90.523681,51.230952-131.379541,83.307693"></path>
    </g>
  </g>
</svg>