<?xml version="1.0"?>
<svg id="Layer_2" data-name="Layer 2" xmlns="http://www.w3.org/2000/svg" viewBox="0 0 1636.96 223.28">
  <defs>
    
  </defs>
  <g id="Layer_1" data-name="Layer 1">
    <g>
      <path fill="#39A6FF" d="M715.5,118.16c0-1.06.03-2.13.08-3.18,1.61-30.97,26.52-55.89,57.5-57.5,1.05-.05,2.11-.08,3.18-.08v34.19c-14.64,0-26.56,11.92-26.56,26.57h-34.2Z"></path>
      <path fill="#83D6FF" d="M1425.19,118.01c0,1.06-.03,2.13-.08,3.18-1.61,30.97-26.52,55.89-57.5,57.5-1.05.05-2.11.08-3.18.08v-34.19c14.64,0,26.56-11.92,26.56-26.57h34.2Z"></path>
      <g>
        <path fill="#F7F3EA" d="M715.48,118.17h34.22c0,14.63,11.91,26.54,26.54,26.54s26.57-11.91,26.57-26.54-11.91-26.57-26.54-26.57v-34.19c1.05,0,2.1.03,3.16.08,30.99,1.62,55.91,26.52,57.5,57.5.05,1.05.08,2.1.08,3.18,0,33.5-27.26,60.76-60.76,60.76s-58.99-25.54-60.69-57.58c-.03-1.05-.08-2.13-.08-3.18Z"></path>
        <path fill="#F7F3EA" d="M1425.2,118h-34.22c0-14.63-11.91-26.54-26.54-26.54s-26.57,11.91-26.57,26.54,11.91,26.57,26.54,26.57v34.19c-1.05,0-2.1-.03-3.16-.08-30.99-1.62-55.91-26.52-57.5-57.5-.05-1.05-.08-2.1-.08-3.18,0-33.5,27.26-60.76,60.76-60.76s58.99,25.54,60.69,57.58c.03,1.05.08,2.13.08,3.18Z"></path>
        <path fill="#F7F3EA" d="M1271.96,6.96c10.98,0,18.68,8.41,18.68,18.92s-7.71,18.68-18.68,18.68-18.68-8.17-18.68-18.68,7.94-18.92,18.68-18.92Z"></path>
        <path fill="#F7F3EA" d="M469.59,176.04v-14.95c-7.94,10.98-19.85,17.51-34.56,17.51-32.23,0-54.18-26.62-54.18-60.72s21.95-60.48,53.94-60.48c14.71,0,26.85,6.54,34.8,17.51v-15.18h31.76v116.3h-31.76ZM441.33,88.46c-16.11,0-28.02,13.31-28.02,29.42s11.91,29.66,28.02,29.66,28.26-13.55,28.26-29.66-11.91-29.42-28.26-29.42Z"></path>
        <path fill="#F7F3EA" d="M595.46,161.56c-5.84,10.04-15.88,17.05-30.59,17.05-24.52,0-40.63-18.68-40.63-43.67V59.74h31.76v66.09c0,13.08,7.47,21.72,19.62,21.72s19.15-7.94,19.85-20.08V59.74h31.76v116.3h-31.76v-14.48Z"></path>
        <path fill="#F7F3EA" d="M659.67,176.04v-89.21h-17.75v-27.09h19.62v-25.45l29.89-6.77v32.23h19.62v27.09h-19.62v89.21h-31.76Z"></path>
        <path fill="#F7F3EA" d="M884.32,73.52c6.07-9.34,15.88-16.11,29.66-16.11,16.35,0,29.19,7.47,35.73,21.02,5.6-11.91,16.81-21.02,34.33-21.02,22.42,0,39.93,17.75,39.93,42.73v75.9h-31.76v-66.79c0-13.08-7.47-20.78-18.68-20.78s-19.38,7.71-19.38,20.78v66.79h-31.76v-66.79c0-13.08-7.47-20.78-18.68-20.78s-18.68,7-19.38,19.15v68.42h-31.76V59.74h31.76v13.78Z"></path>
        <path fill="#F7F3EA" d="M1127.88,176.04v-14.95c-7.94,10.98-19.85,17.51-34.56,17.51-32.23,0-54.18-26.62-54.18-60.72s21.95-60.48,53.94-60.48c14.71,0,26.85,6.54,34.8,17.51v-15.18h31.76v116.3h-31.76ZM1099.63,88.46c-16.11,0-28.02,13.31-28.02,29.42s11.91,29.66,28.02,29.66,28.26-13.55,28.26-29.66-11.91-29.42-28.26-29.42Z"></path>
        <path fill="#F7F3EA" d="M1192.1,176.04v-89.21h-17.75v-27.09h19.62v-25.45l29.89-6.77v32.23h19.62v27.09h-19.62v89.21h-31.76Z"></path>
        <rect fill="#F7F3EA" x="1256.08" y="59.74" width="31.76" height="116.3"></rect>
        <path fill="#F7F3EA" d="M1472.79,74.45c6.31-10.04,16.11-17.05,30.59-17.05,24.99,0,41.1,18.68,41.1,43.67v74.96h-31.99v-66.09c0-12.84-7.71-21.48-19.85-21.48s-19.15,7.71-19.85,20.08v67.49h-31.76V59.74h31.76v14.71Z"></path>
        <path fill="#F7F3EA" d="M1631.12,92.67c-7.24-4.44-17.51-7.71-25.45-7.71s-11.44,3.97-11.44,8.41c0,3.74,2.33,5.6,6.77,8.41l16.81,9.81c14.01,8.41,19.15,19.38,19.15,31.53,0,20.08-14.95,35.49-42.73,35.49-10.51,0-22.19-2.33-30.36-5.84v-31.76c5.37,4.67,18.68,10.28,28.02,10.28,8.17,0,12.14-3.74,12.14-8.64,0-3.74-2.1-6.77-7.71-10.04l-18.21-10.51c-12.14-7.01-16.81-18.45-16.81-29.89,0-20.55,15.88-34.8,43.2-34.8,8.64,0,19.15,1.63,26.62,3.97v31.29Z"></path>
      </g>
      <rect fill="#83D6FF" x="203.56" y="140.69" width="42.62" height="82.59"></rect>
      <path fill="#83D6FF" d="M151.51,75.75c0,1.33-.04,2.66-.1,3.96-2,38.62-33.07,69.69-71.69,71.69-1.31.06-2.64.1-3.96.1v-42.62c18.25,0,33.11-14.86,33.11-33.13h42.64Z"></path>
      <rect fill="#1D58FF" x="167.48" y="3.11" width="151.67" height="38.66"></rect>
      <path fill="#39A6FF" d="M75.75,108.89v42.62c-16.88,0-30.87,12.72-32.87,29.11-.18,1.29-.26,2.62-.26,3.96H0c0-1.33.04-2.66.1-3.96,2.04-38.58,33.11-69.63,71.69-71.63,1.31-.06,2.64-.1,3.96-.1Z"></path>
      <path fill="#1D58FF" d="M151.51,75.75h-42.64c0-18.25-14.86-33.11-33.11-33.11s-33.13,14.86-33.13,33.11H0C0,33.98,33.98,0,75.75,0s73.57,31.84,75.66,71.79c.06,1.31.1,2.64.1,3.96Z"></path>
      <rect fill="#1D58FF" y="184.58" width="147.43" height="38.7"></rect>
      <path fill="#39A6FF" d="M319.15,41.77v.1c-.04,1.29-.1,2.58-.22,3.86-.85,11.45-4.38,22.65-10.24,32.58-8.3,14.03-21.8,24.91-37.95,30.63-6.58,2.32-9.11,3.75-10.03,4.38-9.09,6.2-14.52,16.43-14.52,27.37h-42.62v-.5c.02-1.15.04-2.32.12-3.47.63-12.19,4.2-24.04,10.38-34.5,8.28-13.99,21.74-24.87,37.93-30.61,6.58-2.32,9.12-3.75,10.05-4.38,7.37-5.05,12.4-12.88,13.95-21.5.26-1.31.42-2.64.48-3.96h42.68Z"></path>
    </g>
  </g>
</svg>